<svg width="200" height="100" viewBox="0 0 200 100" fill="none" xmlns="http://www.w3.org/2000/svg">
<rect width="200" height="100" fill="#FCFCFC"/>
<path d="M43.3613 51.9805V62H39.9863V36.4062H49.4258C52.2266 36.4062 54.418 37.1211 56 38.5508C57.5938 39.9805 58.3906 41.873 58.3906 44.2285C58.3906 46.7129 57.6113 48.6289 56.0527 49.9766C54.5059 51.3125 52.2852 51.9805 49.3906 51.9805H43.3613ZM43.3613 49.2207H49.4258C51.2305 49.2207 52.6133 48.7988 53.5742 47.9551C54.5352 47.0996 55.0156 45.8691 55.0156 44.2637C55.0156 42.7402 54.5352 41.5215 53.5742 40.6074C52.6133 39.6934 51.2949 39.2188 49.6191 39.1836H43.3613V49.2207ZM69.834 62.3516C67.2559 62.3516 65.1582 61.5078 63.541 59.8203C61.9238 58.1211 61.1152 55.8535 61.1152 53.0176V52.4199C61.1152 50.5332 61.4727 48.8516 62.1875 47.375C62.9141 45.8867 63.9219 44.7266 65.2109 43.8945C66.5117 43.0508 67.918 42.6289 69.4297 42.6289C71.9023 42.6289 73.8242 43.4434 75.1953 45.0723C76.5664 46.7012 77.252 49.0332 77.252 52.0684V53.4219H64.3672C64.4141 55.2969 64.959 56.8145 66.002 57.9746C67.0566 59.123 68.3926 59.6973 70.0098 59.6973C71.1582 59.6973 72.1309 59.4629 72.9277 58.9941C73.7246 58.5254 74.4219 57.9043 75.0195 57.1309L77.0059 58.6777C75.4121 61.127 73.0215 62.3516 69.834 62.3516ZM69.4297 45.3008C68.1172 45.3008 67.0156 45.7812 66.125 46.7422C65.2344 47.6914 64.6836 49.0273 64.4727 50.75H74V50.5039C73.9062 48.8516 73.4609 47.5742 72.6641 46.6719C71.8672 45.7578 70.7891 45.3008 69.4297 45.3008ZM96.5879 62H93.3359V45.6699H84.582V62H81.3125V42.9805H96.5879V62ZM100.947 52.3145C100.947 50.4512 101.311 48.7754 102.037 47.2871C102.775 45.7988 103.795 44.6504 105.096 43.8418C106.408 43.0332 107.902 42.6289 109.578 42.6289C112.168 42.6289 114.26 43.5254 115.854 45.3184C117.459 47.1113 118.262 49.4961 118.262 52.4727V52.7012C118.262 54.5527 117.904 56.2168 117.189 57.6934C116.486 59.1582 115.473 60.3008 114.148 61.1211C112.836 61.9414 111.324 62.3516 109.613 62.3516C107.035 62.3516 104.943 61.4551 103.338 59.6621C101.744 57.8691 100.947 55.4961 100.947 52.543V52.3145ZM104.217 52.7012C104.217 54.8105 104.703 56.5039 105.676 57.7812C106.66 59.0586 107.973 59.6973 109.613 59.6973C111.266 59.6973 112.578 59.0527 113.551 57.7637C114.523 56.4629 115.01 54.6465 115.01 52.3145C115.01 50.2285 114.512 48.541 113.516 47.252C112.531 45.9512 111.219 45.3008 109.578 45.3008C107.973 45.3008 106.678 45.9395 105.693 47.2168C104.709 48.4941 104.217 50.3223 104.217 52.7012ZM138.406 52.7012C138.406 55.5957 137.744 57.9277 136.42 59.6973C135.096 61.4668 133.303 62.3516 131.041 62.3516C128.732 62.3516 126.916 61.6191 125.592 60.1543V69.3125H122.34V42.9805H125.311L125.469 45.0898C126.793 43.4492 128.633 42.6289 130.988 42.6289C133.273 42.6289 135.078 43.4902 136.402 45.2129C137.738 46.9355 138.406 49.332 138.406 52.4023V52.7012ZM135.154 52.332C135.154 50.1875 134.697 48.4941 133.783 47.252C132.869 46.0098 131.615 45.3887 130.021 45.3887C128.053 45.3887 126.576 46.2617 125.592 48.0078V57.0957C126.564 58.8301 128.053 59.6973 130.057 59.6973C131.615 59.6973 132.852 59.082 133.766 57.8516C134.691 56.6094 135.154 54.7695 135.154 52.332ZM155.281 45.6172H148.9V62H145.648V45.6172H139.391V42.9805H155.281V45.6172Z" fill="black"/>
</svg>
